<?xml version="1.0" encoding="UTF-8"?>
<svg width="24px" height="24px" viewBox="0 0 24 24" version="1.1" xmlns="http://www.w3.org/2000/svg" xmlns:xlink="http://www.w3.org/1999/xlink">
    <!-- Generator: Sketch 63.1 (92452) - https://sketch.com -->
    <title>mockingbot_logo</title>
    <desc>Created with Sketch.</desc>
    <g id="新增嵌入第三方卡片" stroke="none" stroke-width="1" fill="none" fill-rule="evenodd">
        <g id="新增嵌入卡片/入口" transform="translate(-580.000000, -1043.000000)">
            <g id="mockingbot_logo" transform="translate(580.000000, 1043.000000)">
                <g id="编组-18备份-3" fill="#FF6161">
                    <rect id="Rectangle备份-4" x="0" y="0" width="24" height="24" rx="4"></rect>
                </g>
                <g id="编组" transform="translate(4.000000, 6.000000)" fill="#FFFFFF" fill-rule="nonzero">
                    <path d="M15.1153571,9.28035714 C14.5573214,10.2585714 13.5042857,10.9196429 12.2998214,10.9196429 L3.74696429,10.9196429 C2.51017857,10.9196429 1.43339286,10.2228571 0.887857143,9.20125 L0.0569642857,9.60232143 C0.752321429,10.9321429 2.14517857,11.8417857 3.74696429,11.8417857 L12.2998214,11.8417857 C13.8692857,11.8417857 15.2385714,10.9682143 15.9471429,9.68196429 L15.1153571,9.28035714 L15.1153571,9.28035714 Z M0.809464286,2.81285714 C1.32517857,1.70642857 2.44785714,0.9375 3.74696429,0.9375 L12.2998214,0.9375 C13.5621429,0.9375 14.6578571,1.66339286 15.1921429,2.71946429 L15.9923214,2.25946429 C15.2978571,0.927142857 13.9033929,0.0153571429 12.3,0.0153571429 L3.74696429,0.0153571429 C2.10660714,0.0153571429 0.685178571,0.969464286 0.00785714286,2.35178571 L0.809464286,2.81285714 L0.809464286,2.81285714 Z M3.18125,7.34642857 L2.16875,7.34642857 C1.95178571,7.34642857 1.77589286,7.17053571 1.77589286,6.95357143 L1.77589286,4.90357143 C1.77589286,4.68660714 1.95178571,4.51071429 2.16875,4.51071429 L3.18125,4.51071429 C3.39821429,4.51071429 3.57410714,4.68660714 3.57410714,4.90357143 L3.57410714,6.95357143 C3.57410714,7.17053571 3.39821429,7.34642857 3.18125,7.34642857 L3.18125,7.34642857 Z M8.50821429,7.36946429 L7.49571429,7.36946429 C7.27875,7.36946429 7.10285714,7.19357143 7.10285714,6.97660714 L7.10285714,4.92678571 C7.10285714,4.70982143 7.27875,4.53392857 7.49571429,4.53392857 L8.50821429,4.53392857 C8.72517857,4.53392857 8.90107143,4.70982143 8.90107143,4.92678571 L8.90107143,6.97660714 C8.90107143,7.19357143 8.72517857,7.36946429 8.50821429,7.36946429 L8.50821429,7.36946429 Z" id="形状"></path>
                </g>
            </g>
        </g>
    </g>
</svg>
