<?xml version="1.0" encoding="UTF-8"?>
<svg width="16px" height="16px" viewBox="0 0 16 16" version="1.1" xmlns="http://www.w3.org/2000/svg" xmlns:xlink="http://www.w3.org/1999/xlink">
    <title>2.图标/1.通用/1.线性/下拉箭头 2</title>
    <g id="控件" stroke="none" stroke-width="1" fill="none" fill-rule="evenodd">
        <g id="2.图标/1.通用/1.线性/下拉箭头" fill="#595959" transform="translate(8.000000, 8.000000) rotate(90.000000) translate(-8.000000, -8.000000) ">
            <path d="M11.3482718,2.60679873 L11.3397158,3.62178598 C11.3382416,3.79667784 11.2680984,3.96398592 11.1444088,4.08763954 L6.81532308,8.41546572 C6.62778837,8.60283431 6.62774416,8.9067535 6.81516854,9.09423243 C6.81518713,9.09425103 6.81520573,9.09426962 6.8152801,9.09423244 L11.1775234,13.4563112 C11.306296,13.585079 11.3767873,13.7609201 11.3726199,13.9429809 L11.3503547,14.9156637 C11.3466473,15.0776248 11.2123465,15.2059148 11.0503854,15.2022074 C10.974932,15.2004803 10.9030477,15.1697365 10.8496802,15.1163689 L4.79057404,9.05726277 C4.62395034,8.89063907 4.62395034,8.62048868 4.79057404,8.45386498 L10.8475309,2.39690814 C10.9620847,2.28235435 11.1478131,2.28235435 11.2623669,2.39690814 C11.3179837,2.45252493 11.3489348,2.5281475 11.3482718,2.60679873 Z" id="路径-18" transform="translate(8.019200, 8.756639) scale(-1, 1) rotate(-90.000000) translate(-8.019200, -8.756639) "></path>
        </g>
    </g>
</svg>
