<?xml version="1.0" encoding="UTF-8"?>
<svg width="24px" height="24px" viewBox="0 0 24 24" version="1.1" xmlns="http://www.w3.org/2000/svg" xmlns:xlink="http://www.w3.org/1999/xlink">
    <!-- Generator: Sketch 56.2 (81672) - https://sketch.com -->
    <title>编组 13</title>
    <desc>Created with Sketch.</desc>
    <g id="支持的本地文件信息透出" stroke="none" stroke-width="1" fill="none" fill-rule="evenodd">
        <g id="本地文件支持信息透出" transform="translate(-1844.000000, -363.000000)">
            <g id="编组-13" transform="translate(1844.000000, 363.000000)">
                <g id="编组-7备份-6" fill="#F9F9F9">
                    <rect id="矩形" x="0" y="0" width="24" height="24" rx="2.5"></rect>
                </g>
                <path d="M12.4114904,9.16250606 C13.213895,8.82731683 13.7777778,8.03506491 13.7777778,7.11111111 C13.7777778,5.88381167 12.782855,4.88888889 11.5555556,4.88888889 C10.3282561,4.88888889 9.33333333,5.88381167 9.33333333,7.11111111 C9.33333333,8.03506491 9.89721608,8.82731683 10.6996208,9.16250606 L10.7135879,9.13457174 L10.9362033,9.24587945 C11.1327957,9.30281661 11.3406118,9.33333333 11.5555556,9.33333333 C11.7704993,9.33333333 11.9783154,9.30281661 12.1749078,9.24587945 L12.3975232,9.13457174 L12.4114904,9.16250606 Z M11.9360247,10.1991907 C11.8113296,10.2143952 11.6843566,10.2222222 11.5555556,10.2222222 C11.4267545,10.2222222 11.2997816,10.2143952 11.1750864,10.1991907 L9.0477381,14.4538873 C9.76346539,15.0238819 10.2222222,15.9028112 10.2222222,16.8888889 C10.2222222,18.6071081 8.82933033,20 7.11111111,20 C5.39289189,20 4,18.6071081 4,16.8888889 C4,15.1706697 5.39289189,13.7777778 7.11111111,13.7777778 C7.52404362,13.7777778 7.91818636,13.8582264 8.27872112,14.0043053 L10.3013426,9.95906246 C9.20777745,9.47676526 8.44444444,8.38308117 8.44444444,7.11111111 C8.44444444,5.39289189 9.83733633,4 11.5555556,4 C13.2737748,4 14.6666667,5.39289189 14.6666667,7.11111111 C14.6666667,8.38308117 13.9033337,9.47676526 12.8097686,9.95906246 L14.83239,14.0043053 C15.1929248,13.8582264 15.5870675,13.7777778 16,13.7777778 C17.7182192,13.7777778 19.1111111,15.1706697 19.1111111,16.8888889 C19.1111111,18.6071081 17.7182192,20 16,20 C14.2817808,20 12.8888889,18.6071081 12.8888889,16.8888889 C12.8888889,15.9028112 13.3476457,15.0238819 14.063373,14.4538873 L11.9360247,10.1991907 Z M16,19.1111111 C17.2272994,19.1111111 18.2222222,18.1161883 18.2222222,16.8888889 C18.2222222,15.6615894 17.2272994,14.6666667 16,14.6666667 C14.7727006,14.6666667 13.7777778,15.6615894 13.7777778,16.8888889 C13.7777778,18.1161883 14.7727006,19.1111111 16,19.1111111 Z M7.11111111,19.1111111 C8.33841056,19.1111111 9.33333333,18.1161883 9.33333333,16.8888889 C9.33333333,15.6615894 8.33841056,14.6666667 7.11111111,14.6666667 C5.88381167,14.6666667 4.88888889,15.6615894 4.88888889,16.8888889 C4.88888889,18.1161883 5.88381167,19.1111111 7.11111111,19.1111111 Z" id="Combined-Shape" stroke="#000000" stroke-width="0.3" fill="#000000" fill-rule="nonzero" opacity="0.65"></path>
            </g>
        </g>
    </g>
</svg>
