<?xml version="1.0" encoding="UTF-8"?>
<svg width="24px" height="24px" viewBox="0 0 24 24" version="1.1" xmlns="http://www.w3.org/2000/svg" xmlns:xlink="http://www.w3.org/1999/xlink">
    <!-- Generator: Sketch 54.1 (76490) - https://sketchapp.com -->
    <title>标签</title>
    <desc>Created with Sketch.</desc>
    <g id="标签3.0" stroke="none" stroke-width="1" fill="none" fill-rule="evenodd">
        <g id="新增标签" transform="translate(-187.000000, -432.000000)">
            <g id="标签" transform="translate(187.000000, 432.000000)">
                <rect id="Rectangle-Copy-24" stroke="#E8E8E8" stroke-width="0.666666667" fill="#FFFFFF" x="0.333333333" y="0.333333333" width="23.3333333" height="23.3333333" rx="1.33333333"></rect>
                <g id="编组-5" transform="translate(6.000000, 6.000000)">
                    <path d="M2.53376387,6.19226031 L0.530761327,4.33986804 C0.313032196,4.13851046 0.254492535,3.817535 0.387120475,3.55227912 L1.9789979,0.36852427 C2.09192591,0.142668251 2.32276799,1.82579877e-12 2.57528269,1.78198197e-12 L12.2894956,-6.21724894e-15 C12.6576854,-7.01660952e-14 12.9561623,0.298476833 12.9561623,0.666666667 L12.9561623,5.70281378 C12.9561623,6.07100361 12.6576854,6.36948045 12.2894956,6.36948045 L2.98640781,6.36948045 C2.81859958,6.36948045 2.6569636,6.30619638 2.53376387,6.19226031 Z" id="矩形" fill="#BFBFBF"></path>
                    <g id="编组-4" transform="translate(0.000000, 0.209553)">
                        <path d="M0.598168616,3.86060908 C0.570686984,3.93497641 0.577721174,4.0177159 0.617362502,4.08637669 L4.74298077,11.2321571 C4.81661874,11.3597018 4.97970951,11.4034019 5.10725421,11.3297639 L9.72605636,8.66309725 C9.85360106,8.58945929 9.89730111,8.42636851 9.82366314,8.29882381 L5.69804487,1.15304336 C5.65840354,1.08438257 5.59026614,1.03692103 5.51212132,1.02353716 L2.09502794,0.438291138 C1.96844677,0.416611565 1.84439291,0.488234096 1.79987739,0.60869639 L0.598168616,3.86060908 Z" id="矩形" stroke="#595959" stroke-width="0.8" fill="#FFFFFF"></path>
                        <path d="M3.95616227,2.82659418 C3.95616227,3.19478402 3.65768543,3.49326085 3.2894956,3.49326085 C2.92130577,3.49326085 2.62282893,3.19478402 2.62282893,2.82659418 C2.62282893,2.45840435 2.92130577,2.15992752 3.2894956,2.15992752 C3.65768543,2.15992752 3.95616227,2.45840435 3.95616227,2.82659418 Z" id="椭圆形" fill="#595959"></path>
                    </g>
                    <circle id="椭圆形" fill="#595959" transform="translate(3.283322, 3.046840) scale(-1, 1) rotate(30.000000) translate(-3.283322, -3.046840) " cx="3.28332195" cy="3.04684018" r="1"></circle>
                </g>
            </g>
        </g>
    </g>
</svg>
