<?xml version="1.0" encoding="UTF-8"?>
<svg width="21px" height="16px" viewBox="0 0 21 16" version="1.1" xmlns="http://www.w3.org/2000/svg" xmlns:xlink="http://www.w3.org/1999/xlink">
    <!-- Generator: Sketch 56.2 (81672) - https://sketch.com -->
    <title>编组</title>
    <desc>Created with Sketch.</desc>
    <g id="新编辑器---第一、二期" stroke="none" stroke-width="1" fill="none" fill-rule="evenodd">
        <g id="21-消息提示" transform="translate(-522.000000, -421.000000)">
            <g id="Group-4-Copy" transform="translate(513.000000, 411.000000)">
                <g id="Group-2">
                    <g id="编组" transform="translate(8.000000, 8.000000)">
                        <g id="image-fill" opacity="0.45" fill="#000000">
                            <rect id="Rectangle" opacity="0" x="0" y="0" width="16" height="16"></rect>
                            <path d="M14.5,2.5 L1.5,2.5 C1.2234375,2.5 1,2.7234375 1,3 L1,13 C1,13.2765625 1.2234375,13.5 1.5,13.5 L14.5,13.5 C14.7765625,13.5 15,13.2765625 15,13 L15,3 C15,2.7234375 14.7765625,2.5 14.5,2.5 Z M5.28125,4.75 C5.8328125,4.75 6.28125,5.1984375 6.28125,5.75 C6.28125,6.3015625 5.8328125,6.75 5.28125,6.75 C4.7296875,6.75 4.28125,6.3015625 4.28125,5.75 C4.28125,5.1984375 4.7296875,4.75 5.28125,4.75 Z M13.3109375,11.5796875 C13.2890625,11.5984375 13.259375,11.609375 13.2296875,11.609375 L2.76875,11.609375 C2.7,11.609375 2.64375,11.553125 2.64375,11.484375 C2.64375,11.4546875 2.6546875,11.4265625 2.6734375,11.403125 L5.334375,8.246875 C5.378125,8.19375 5.4578125,8.1875 5.5109375,8.23125 C5.515625,8.2359375 5.521875,8.240625 5.5265625,8.246875 L7.0796875,10.090625 L9.55,7.1609375 C9.59375,7.1078125 9.6734375,7.1015625 9.7265625,7.1453125 C9.73125,7.15 9.7375,7.1546875 9.7421875,7.1609375 L13.3296875,11.4046875 C13.3703125,11.45625 13.3640625,11.5359375 13.3109375,11.5796875 Z" id="Shape" fill-rule="nonzero"></path>
                        </g>
                        <g id="error-fill" transform="translate(10.000000, 6.000000)">
                            <rect id="Rectangle" fill="#000000" opacity="0" x="0" y="0" width="12" height="12"></rect>
                            <path d="M11.4160756,9.9061806 L11.4163578,9.90667028 C11.6561529,10.3238747 11.355796,10.84375 10.875,10.84375 L1.125,10.84375 C0.644203958,10.84375 0.343847077,10.3238747 0.583924357,9.9061806 L5.45820504,1.46993392 C5.57190016,1.2705015 5.77841109,1.15625 6,1.15625 C6.22093439,1.15625 6.42592776,1.26995726 6.54107564,1.4686806 L11.4160756,9.9061806 Z" id="Path" stroke="#FFFFFF" stroke-width="0.5" fill="#FFFFFF"></path>
                            <path d="M11.1996094,10.03125 L6.32460938,1.59375 C6.25195313,1.46835937 6.1265625,1.40625 6,1.40625 C5.8734375,1.40625 5.746875,1.46835937 5.67539063,1.59375 L0.800390625,10.03125 C0.65625,10.2820312 0.83671875,10.59375 1.125,10.59375 L10.875,10.59375 C11.1632813,10.59375 11.34375,10.2820312 11.1996094,10.03125 Z M5.625,4.875 C5.625,4.8234375 5.6671875,4.78125 5.71875,4.78125 L6.28125,4.78125 C6.3328125,4.78125 6.375,4.8234375 6.375,4.875 L6.375,7.03125 C6.375,7.0828125 6.3328125,7.125 6.28125,7.125 L5.71875,7.125 C5.6671875,7.125 5.625,7.0828125 5.625,7.03125 L5.625,4.875 Z M6,9 C5.68945312,9 5.4375,8.74804688 5.4375,8.4375 C5.4375,8.12695312 5.68945312,7.875 6,7.875 C6.31054688,7.875 6.5625,8.12695312 6.5625,8.4375 C6.5625,8.74804688 6.31054688,9 6,9 Z" id="Shape" fill="#FAAD14" fill-rule="nonzero"></path>
                        </g>
                    </g>
                </g>
            </g>
        </g>
    </g>
</svg>
