<?xml version="1.0" encoding="UTF-8"?>
<svg width="24px" height="24px" viewBox="0 0 24 24" version="1.1" xmlns="http://www.w3.org/2000/svg" xmlns:xlink="http://www.w3.org/1999/xlink">
    <title>编组 7</title>
    <defs>
        <rect id="path-1" x="0" y="0" width="24" height="24" rx="4"></rect>
    </defs>
    <g id="关联语雀卡片" stroke="none" stroke-width="1" fill="none" fill-rule="evenodd">
        <g id="新建-第三方服务" transform="translate(-654.000000, -674.000000)">
            <g id="编组-19" transform="translate(634.000000, 424.000000)">
                <g id="编组-12" transform="translate(20.000000, 250.000000)">
                    <g id="椭圆形">
                        <mask id="mask-2" fill="white">
                            <use xlink:href="#path-1"></use>
                        </mask>
                        <use id="蒙版" fill="#F5F5F5" xlink:href="#path-1"></use>
                        <g id="应用" mask="url(#mask-2)" fill-rule="nonzero">
                            <g transform="translate(3.000000, 3.000000)">
                                <rect id="矩形" fill="#000000" opacity="0" x="0" y="0" width="18" height="18"></rect>
                                <path d="M15.6375,4.3875 C16.2,4.725 16.5375,5.2875 16.5375,5.85 L16.5375,12.0375 C16.5375,12.7125 16.2,13.275 15.6375,13.5 L10.2375,16.5375 C9.675,16.875 9,16.875 8.55,16.5375 L3.15,13.5 C2.5875,13.1625 2.25,12.6 2.25,12.0375 L2.25,5.85 C2.25,5.175 2.5875,4.6125 3.15,4.3875 L8.55,1.35 C9.1125,1.0125 9.7875,1.0125 10.2375,1.35 L15.6375,4.3875 L15.6375,4.3875 Z" id="形状" fill="#1187E3"></path>
                            </g>
                        </g>
                    </g>
                    <path d="M17.9303522,15.1780806 C18.1386855,15.0696469 18.2428522,14.8527794 18.2428522,14.635912 L18.2428522,8.99735774 L13.1125,11.9815845 C13.0083333,12.0900182 12.9041667,12.0900182 12.8,12.0900182 L12.8,18.1623074 L17.9303522,15.1780806 Z" id="路径" fill="#FFFFFF" fill-rule="nonzero"></path>
                </g>
            </g>
        </g>
    </g>
</svg>
