<?xml version="1.0" encoding="UTF-8"?>
<svg width="21px" height="16px" viewBox="0 0 21 16" version="1.1" xmlns="http://www.w3.org/2000/svg" xmlns:xlink="http://www.w3.org/1999/xlink">
    <!-- Generator: Sketch 56.2 (81672) - https://sketch.com -->
    <title>编组 2</title>
    <desc>Created with Sketch.</desc>
    <g id="新编辑器---第一、二期" stroke="none" stroke-width="1" fill="none" fill-rule="evenodd">
        <g id="21-消息提示" transform="translate(-890.000000, -421.000000)">
            <g id="Group-4复制" transform="translate(881.000000, 411.000000)">
                <g id="Group-2">
                    <g id="编组-2" transform="translate(8.000000, 8.000000)">
                        <g id="image-fill" opacity="0.45" fill="#000000">
                            <rect id="Rectangle" opacity="0" x="0" y="0" width="16" height="16"></rect>
                            <path d="M14.5,2.5 C14.7765625,2.5 15,2.7234375 15,3 L15,13 C15,13.2765625 14.7765625,13.5 14.5,13.5 L1.5,13.5 C1.2234375,13.5 1,13.2765625 1,13 L1,3 C1,2.7234375 1.2234375,2.5 1.5,2.5 L14.5,2.5 Z M11.2678967,4.73207694 C10.2924533,3.75597435 8.70399246,3.75597435 7.7295846,4.73207694 L5.02692307,7.43449258 C5.00931952,7.45210802 5,7.47594068 5,7.50080953 C5,7.52567839 5.00931952,7.54951104 5.02692307,7.56712648 L5.40902349,7.94948514 C5.44526608,7.98575222 5.50428972,7.98575222 5.54053231,7.94948514 L8.24319384,5.24706949 C8.57869666,4.91133994 9.02499823,4.72689593 9.49925838,4.72689593 C9.97351853,4.72689593 10.4198201,4.91133994 10.7542874,5.24706949 C11.0897902,5.58279904 11.2741097,6.02940224 11.2741097,6.5029467 C11.2741097,6.97752736 11.0897902,7.42309436 10.7542874,7.75882391 L7.99985076,10.5140859 L7.55354918,10.9606891 C7.13624167,11.3782786 6.45798753,11.3782786 6.04068002,10.9606891 C5.83875703,10.7586296 5.72795826,10.4902532 5.72795826,10.2042614 C5.72795826,9.91826954 5.83875703,9.64989314 6.04068002,9.44783369 L8.77337113,6.71433197 C8.84274979,6.64594262 8.93387401,6.60760313 9.03121125,6.60760313 L9.03224675,6.60760313 C9.12958399,6.60760313 9.21967271,6.64594262 9.28801587,6.71433197 C9.35739454,6.78375753 9.39467263,6.87494333 9.39467263,6.97234635 C9.39467263,7.06871317 9.35635904,7.15989897 9.28801587,7.22828832 L7.05443697,9.46130432 C7.03683343,9.47891976 7.0275139,9.50275241 7.0275139,9.52762127 C7.0275139,9.55249012 7.03683343,9.57632278 7.05443697,9.59393822 L7.43653739,9.97629687 C7.47277998,10.012564 7.53180362,10.012564 7.56804621,9.97629687 L9.80058961,7.74224467 C10.0066546,7.53604041 10.1195244,7.262483 10.1195244,6.97131015 C10.1195244,6.6801373 10.0056191,6.40554368 9.80058961,6.20037562 C9.37499808,5.77449647 8.68328241,5.77553267 8.25769088,6.20037562 L7.99260224,6.46667962 L5.52603527,8.93387734 C5.18639045,9.2737517 5,9.72449971 5,10.2052976 C5,10.6850593 5.18742595,11.1358073 5.52603527,11.4746454 C5.87707062,11.8248818 6.33683373,12 6.79659685,12 C7.25635996,12 7.71612307,11.8248818 8.06612292,11.4746454 L11.2678967,8.27278026 C11.7390503,7.800272 12,7.1712972 12,6.5029467 C12.0010324,5.83356 11.7400858,5.2045852 11.2678967,4.73207694 Z" id="Shape" fill-rule="nonzero"></path>
                        </g>
                        <g id="error-fill" transform="translate(10.000000, 6.000000)">
                            <rect id="Rectangle" fill="#000000" opacity="0" x="0" y="0" width="12" height="12"></rect>
                            <path d="M11.4160756,9.9061806 L11.4163578,9.90667028 C11.6561529,10.3238747 11.355796,10.84375 10.875,10.84375 L1.125,10.84375 C0.644203958,10.84375 0.343847077,10.3238747 0.583924357,9.9061806 L5.45820504,1.46993392 C5.57190016,1.2705015 5.77841109,1.15625 6,1.15625 C6.22093439,1.15625 6.42592776,1.26995726 6.54107564,1.4686806 L11.4160756,9.9061806 Z" id="Path" stroke="#FFFFFF" stroke-width="0.5" fill="#FFFFFF"></path>
                            <path d="M11.1996094,10.03125 L6.32460938,1.59375 C6.25195313,1.46835937 6.1265625,1.40625 6,1.40625 C5.8734375,1.40625 5.746875,1.46835937 5.67539063,1.59375 L0.800390625,10.03125 C0.65625,10.2820312 0.83671875,10.59375 1.125,10.59375 L10.875,10.59375 C11.1632813,10.59375 11.34375,10.2820312 11.1996094,10.03125 Z M5.625,4.875 C5.625,4.8234375 5.6671875,4.78125 5.71875,4.78125 L6.28125,4.78125 C6.3328125,4.78125 6.375,4.8234375 6.375,4.875 L6.375,7.03125 C6.375,7.0828125 6.3328125,7.125 6.28125,7.125 L5.71875,7.125 C5.6671875,7.125 5.625,7.0828125 5.625,7.03125 L5.625,4.875 Z M6,9 C5.68945312,9 5.4375,8.74804688 5.4375,8.4375 C5.4375,8.12695312 5.68945312,7.875 6,7.875 C6.31054688,7.875 6.5625,8.12695312 6.5625,8.4375 C6.5625,8.74804688 6.31054688,9 6,9 Z" id="Shape" fill="#FAAD14" fill-rule="nonzero"></path>
                        </g>
                    </g>
                </g>
            </g>
        </g>
    </g>
</svg>
