<?xml version="1.0" encoding="UTF-8"?>
<svg width="14px" height="11px" viewBox="0 0 14 11" version="1.1" xmlns="http://www.w3.org/2000/svg" xmlns:xlink="http://www.w3.org/1999/xlink">
    <!-- Generator: Sketch 53.2 (72643) - https://sketchapp.com -->
    <title>Shape</title>
    <desc>Created with Sketch.</desc>
    <g id="新编辑器---第一、二期" stroke="none" stroke-width="1" fill="none" fill-rule="evenodd" opacity="0.45">
        <g id="21-消息提示" transform="translate(-269.000000, -672.000000)" fill="#000000" fill-rule="nonzero">
            <g id="Group-4-Copy-4" transform="translate(260.000000, 563.000000)">
                <g id="Group-2">
                    <g id="image-fill" transform="translate(8.000000, 8.000000)">
                        <path d="M14.5,101 L1.5,101 C1.2234375,101 1,101.223438 1,101.5 L1,111.5 C1,111.776562 1.2234375,112 1.5,112 L14.5,112 C14.7765625,112 15,111.776562 15,111.5 L15,101.5 C15,101.223438 14.7765625,101 14.5,101 Z M5.28125,103.25 C5.8328125,103.25 6.28125,103.698437 6.28125,104.25 C6.28125,104.801563 5.8328125,105.25 5.28125,105.25 C4.7296875,105.25 4.28125,104.801563 4.28125,104.25 C4.28125,103.698437 4.7296875,103.25 5.28125,103.25 Z M13.3109375,110.079688 C13.2890625,110.098438 13.259375,110.109375 13.2296875,110.109375 L2.76875,110.109375 C2.7,110.109375 2.64375,110.053125 2.64375,109.984375 C2.64375,109.954688 2.6546875,109.926563 2.6734375,109.903125 L5.334375,106.746875 C5.378125,106.69375 5.4578125,106.6875 5.5109375,106.73125 C5.515625,106.735938 5.521875,106.740625 5.5265625,106.746875 L7.0796875,108.590625 L9.55,105.660938 C9.59375,105.607812 9.6734375,105.601562 9.7265625,105.645313 C9.73125,105.65 9.7375,105.654687 9.7421875,105.660938 L13.3296875,109.904687 C13.3703125,109.95625 13.3640625,110.035938 13.3109375,110.079688 Z" id="Shape"></path>
                    </g>
                </g>
            </g>
        </g>
    </g>
</svg>
