<?xml version="1.0" encoding="UTF-8"?>
<svg width="24px" height="24px" viewBox="0 0 24 24" version="1.1" xmlns="http://www.w3.org/2000/svg" xmlns:xlink="http://www.w3.org/1999/xlink">
    <!-- Generator: Sketch 56.2 (81672) - https://sketch.com -->
    <title>编组 14</title>
    <desc>Created with Sketch.</desc>
    <g id="支持的本地文件信息透出" stroke="none" stroke-width="1" fill="none" fill-rule="evenodd">
        <g id="本地文件支持信息透出" transform="translate(-1777.000000, -363.000000)">
            <g id="编组-14" transform="translate(1777.000000, 363.000000)">
                <g id="编组-7备份-4" fill="#F9F9F9">
                    <rect id="矩形" x="0" y="0" width="24" height="24" rx="2.5"></rect>
                </g>
                <g id="Group-29" transform="translate(3.000000, 4.000000)">
                    <rect id="Rectangle" fill="#BFBFBF" x="0" y="0" width="5.2826087" height="2.64130435" rx="0.440217391"></rect>
                    <rect id="Rectangle-Copy-2" fill="#BFBFBF" x="0" y="13.2065217" width="5.2826087" height="2.64130435" rx="0.440217391"></rect>
                    <rect id="Rectangle-Copy" fill="#BFBFBF" x="12.326087" y="0" width="5.2826087" height="2.64130435" rx="0.440217391"></rect>
                    <rect id="Rectangle-Copy-3" fill="#BFBFBF" x="12.326087" y="13.2065217" width="5.2826087" height="2.64130435" rx="0.440217391"></rect>
                    <path d="M3.08152174,3.52173913 L3.08152174,12.7663043" id="Path-14" stroke="#595959" stroke-width="0.8" stroke-dasharray="0.8804347826086957"></path>
                    <path d="M15.4076087,3.52173913 L15.4076087,12.7663043" id="Path-14-Copy" stroke="#595959" stroke-width="0.8" stroke-dasharray="0.8804347826086957"></path>
                    <path d="M4.8423913,5.72282609 L14.0869565,5.72282609" id="Path-15" stroke="#595959" stroke-width="0.8"></path>
                    <polygon id="Rectangle" fill="#595959" points="3.52173913 5.72282609 6.16304348 4.40217391 6.16304348 7.04347826"></polygon>
                    <path d="M3.96195652,10.125 L13.2065217,10.125" id="Path-15" stroke="#595959" stroke-width="0.8" transform="translate(8.364130, 10.125000) scale(-1, 1) translate(-8.364130, -10.125000) "></path>
                    <polygon id="Rectangle" fill="#595959" transform="translate(12.766304, 10.125000) scale(-1, 1) translate(-12.766304, -10.125000) " points="11.4456522 10.125 14.0869565 8.80434783 14.0869565 11.4456522"></polygon>
                </g>
            </g>
        </g>
    </g>
</svg>
