<?xml version="1.0" encoding="UTF-8"?>
<svg width="24px" height="24px" viewBox="0 0 24 24" version="1.1" xmlns="http://www.w3.org/2000/svg" xmlns:xlink="http://www.w3.org/1999/xlink">
    <!-- Generator: Sketch 62 (91390) - https://sketch.com -->
    <title>编组 17</title>
    <desc>Created with Sketch.</desc>
    <defs>
        <linearGradient x1="49.9971061%" y1="0%" x2="49.9971061%" y2="100%" id="linearGradient-1">
            <stop stop-color="#00FFBD" offset="0%"></stop>
            <stop stop-color="#00E0FF" offset="100%"></stop>
        </linearGradient>
    </defs>
    <g id="新增嵌入第三方卡片" stroke="none" stroke-width="1" fill="none" fill-rule="evenodd">
        <g id="新增嵌入卡片/入口" transform="translate(-1305.000000, -1039.000000)">
            <g id="编组-17" transform="translate(1305.001672, 1039.000000)">
                <rect id="Rectangle备份" fill="#2D2D2D" x="0" y="0" width="24" height="24" rx="2.66666667"></rect>
                <path d="M12,5 C15.8828125,5 19,8.375 19,12.5 C19,13.6785714 18.7265625,14.8571429 18.234375,15.875 C17.796875,16.8392857 17.0859375,17.6964286 16.265625,18.3928571 C16.2109375,18.4464286 16.2109375,18.4464286 16.15625,18.5 C16.046875,18.6071429 15.8828125,18.6071429 15.71875,18.6071429 C15.609375,18.6071429 15.4453125,18.5535714 15.3359375,18.5 C15.171875,18.4464286 15.0625,18.2857143 15.0078125,18.125 L13.421875,13.4107143 L12.328125,19.3571429 C12.2734375,19.7321429 11.9453125,20 11.6171875,20 C11.234375,20 10.90625,19.7321429 10.8515625,19.4107143 L9.7578125,15.9821429 L9.15625001,18.3928571 C9.1015625,18.6071429 8.9375,18.7678571 8.71875,18.875 C8.5,18.9285714 8.2265625,18.875 8.0625,18.7142857 C7.8984375,18.5535714 7.84375,18.3392857 7.8984375,18.125 L8.9375,13.8392857 C8.9375,13.7857143 8.9375,13.7321429 8.9921875,13.6785714 C9.046875,13.5714286 9.1015625,13.4642857 9.21093751,13.3571429 C9.48437501,13.1428571 9.92187503,13.1428571 10.1953125,13.3571429 C10.3046875,13.4107143 10.359375,13.5714286 10.4140625,13.6785714 L10.4140625,13.7321429 L11.453125,17 L12.546875,11.1071429 C12.6015625,10.7857143 12.875,10.5178571 13.203125,10.5178571 C13.53125,10.4642857 13.859375,10.6785714 13.96875,11 L13.96875,11.0535714 L15.9921875,16.9464286 C16.4296875,16.4642857 16.8125,15.9285714 17.03125,15.3928571 C17.46875,14.4821429 17.6875,13.5178571 17.6875,12.5535714 C17.6875,9.125 15.1171875,6.33928571 12,6.33928571 C8.88281251,6.33928571 6.3125,9.07142857 6.3125,12.5 C6.3125,12.9821429 6.3671875,13.4642857 6.4765625,13.9464286 C6.53125,14.1607143 6.4765625,14.4285714 6.2578125,14.5892857 C6.09375,14.75 5.8203125,14.8035714 5.6015625,14.75 C5.3828125,14.6964286 5.21875,14.4821429 5.1640625,14.2678571 C5.0546875,13.625 5,13.0892857 5,12.5 C5,8.375 8.171875,5 12,5 Z M7,17 C6.42857143,17 6,16.5714286 6,16 C6,15.4285714 6.42857143,15 7,15 C7.57142857,15 8,15.4285714 8,16 C7.92857143,16.5714286 7.5,17 7,17 Z" id="Combined-Shape" fill="url(#linearGradient-1)" fill-rule="nonzero"></path>
            </g>
        </g>
    </g>
</svg>
