<?xml version="1.0" encoding="UTF-8"?>
<svg width="31px" height="12px" viewBox="0 0 31 12" version="1.1" xmlns="http://www.w3.org/2000/svg" xmlns:xlink="http://www.w3.org/1999/xlink">
    <!-- Generator: Sketch 53.2 (72643) - https://sketchapp.com -->
    <title>Group 4</title>
    <desc>Created with Sketch.</desc>
    <g id="标签3.0" stroke="none" stroke-width="1" fill="none" fill-rule="evenodd">
        <g id="新增标签" transform="translate(-737.000000, -355.000000)">
            <g id="Group-4" transform="translate(737.000000, 355.000000)">
                <path d="M2.58578644,9.24264069 L0.292893219,6.94974747 C-0.0976310729,6.55922318 -0.0976310729,5.9260582 0.292893219,5.53553391 L2.58578644,3.24264069 L2.58578644,1 C2.58578644,0.44771525 3.03350169,1.01453063e-16 3.58578644,0 L29.5857864,0 C30.1380712,-1.01453063e-16 30.5857864,0.44771525 30.5857864,1 L30.5857864,11 C30.5857864,11.5522847 30.1380712,12 29.5857864,12 L3.58578644,12 C3.03350169,12 2.58578644,11.5522847 2.58578644,11 L2.58578644,9.24264069 Z" id="形状结合复制" fill="#25B864"></path>
                <path d="M12.1942228,9 L10.080027,9 L7.40946386,4.00540541 L7.37237271,4.03783784 L7.37237271,9 L6,9 L6,3 L8.1883781,3 L10.7847589,7.73513514 L10.8218501,7.7027027 L10.8218501,3 L12.1942228,3 L12.1942228,9 Z M13.3465213,9 L13.3465213,3 L17.9458244,3 L17.9458244,4.00540541 L14.8301675,4.00540541 L14.8301675,5.4 L17.7232775,5.4 L17.7232775,6.40540541 L14.8301675,6.40540541 L14.8301675,7.99459459 L18.0570979,7.99459459 L18.0570979,9 L13.3465213,9 Z M20.9352114,7.50810811 L22.0872114,3 L23.5272114,3 L24.5512114,7.50810811 L24.5832114,7.50810811 L25.5432114,3 L26.7272114,3 L25.2232114,9 L23.8152114,9 L22.7592114,4.42702703 L21.6072114,9 L20.1672114,9 L18.7272114,3 L20.0392114,3 L20.9352114,7.50810811 Z" id="NEW复制" fill="#FFFFFF" fill-rule="nonzero"></path>
            </g>
        </g>
    </g>
</svg>
