<?xml version="1.0" encoding="UTF-8"?>
<svg width="24px" height="24px" viewBox="0 0 24 24" version="1.1" xmlns="http://www.w3.org/2000/svg" xmlns:xlink="http://www.w3.org/1999/xlink">
    <!-- Generator: Sketch 56.2 (81672) - https://sketch.com -->
    <title>编组 12</title>
    <desc>Created with Sketch.</desc>
    <g id="支持的本地文件信息透出" stroke="none" stroke-width="1" fill="none" fill-rule="evenodd">
        <g id="本地文件支持信息透出" transform="translate(-1905.000000, -363.000000)">
            <g id="编组-12" transform="translate(1905.000000, 363.000000)">
                <g id="编组-7备份-7" fill="#F9F9F9">
                    <rect id="矩形" x="0" y="0" width="24" height="24" rx="2.5"></rect>
                </g>
                <path d="M13.1780359,18 C13.2680836,16.9203088 13.4522786,16.2570091 13.7306211,16.010101 C14.723268,15.129558 16.2390017,15.4075915 16.9767607,14.4967251 C17.4686,13.8894807 17.6653357,13.1313131 17.5669679,12.2222222 C17.3399834,12.3037727 17.0940638,12.3542778 16.8292089,12.3737374 C15.6060724,12.4636045 14.189898,12.5143269 13.7306211,12.6767677 C13.1603301,12.8784729 12.6674533,13.2945253 12.4026549,13.5858586 C12.2524299,13.7511374 12.0821694,14.1045863 11.8918735,14.6462052 C11.7015775,14.1045863 11.531317,13.7511374 11.381092,13.5858586 C11.1162936,13.2945253 10.6234168,12.8784729 10.0531258,12.6767677 C9.59384893,12.5143269 8.17767447,12.4636045 6.95453803,12.3737374 C6.68968312,12.3542778 6.44376346,12.3037727 6.21677904,12.2222222 C6.11841117,13.1313131 6.3151469,13.8894807 6.80698623,14.4967251 C7.54474522,15.4075915 9.06047889,15.129558 10.0531258,16.010101 C10.3314683,16.2570091 10.5156634,16.9203088 10.605711,18 L4.46589103,18 C4.1884928,18 3.98055374,17.8010154 4.00144615,17.5555556 L4.94717233,6.44444444 C4.96806473,6.19898456 5.18129649,6 5.42343879,6 L9.54813327,6 C9.70826333,6 9.85565678,6.08729885 9.93261579,6.22772301 L11.8077587,9.64922472 C11.8659459,9.75539663 11.9991853,9.79429595 12.1053572,9.73610878 C12.1420088,9.71602198 12.1721545,9.68587632 12.1922413,9.64922472 L14.0673842,6.22772301 C14.1443432,6.08729885 14.2917367,6 14.4518667,6 L18.5765612,6 C18.8187035,6 19.0319353,6.19898456 19.0528277,6.44444444 L19.9985539,17.5555556 C20.0194463,17.8010154 19.8115072,18 19.534109,18 L13.1780359,18 Z" id="Combined-Shape" fill="#666666"></path>
            </g>
        </g>
    </g>
</svg>
