<?xml version="1.0" encoding="UTF-8"?>
<svg width="14px" height="14px" viewBox="0 0 14 14" version="1.1" xmlns="http://www.w3.org/2000/svg" xmlns:xlink="http://www.w3.org/1999/xlink">
    <!-- Generator: Sketch 56.2 (81672) - https://sketch.com -->
    <title>info-circle</title>
    <desc>Created with Sketch.</desc>
    <g id="查看图片优化4.0" stroke="none" stroke-width="1" fill="none" fill-rule="evenodd">
        <g id="加载图片" transform="translate(-1057.000000, -366.000000)" fill="#000000">
            <g id="info-circle" transform="translate(1056.000000, 365.000000)">
                <rect id="矩形" fill-rule="nonzero" opacity="0" x="0" y="0" width="16" height="16"></rect>
                <path d="M8,1 C11.865625,1 15,4.134375 15,8 C15,11.865625 11.865625,15 8,15 C4.134375,15 1,11.865625 1,8 C1,4.134375 4.134375,1 8,1 Z M8,13.8125 C11.209375,13.8125 13.8125,11.209375 13.8125,8 C13.8125,4.790625 11.209375,2.1875 8,2.1875 C4.790625,2.1875 2.1875,4.790625 2.1875,8 C2.1875,11.209375 4.790625,13.8125 8,13.8125 Z M7.25,5.25 C7.25,4.83578644 7.58578644,4.5 8,4.5 C8.41421356,4.5 8.75,4.83578644 8.75,5.25 C8.75,5.66421356 8.41421356,6 8,6 C7.58578644,6 7.25,5.66421356 7.25,5.25 Z M8.375,7 C8.44375,7 8.5,7.05625 8.5,7.125 L8.5,11.375 C8.5,11.44375 8.44375,11.5 8.375,11.5 L7.625,11.5 C7.55625,11.5 7.5,11.44375 7.5,11.375 L7.5,7.125 C7.5,7.05625 7.55625,7 7.625,7 L8.375,7 Z" id="形状结合" fill-opacity="0.45"></path>
            </g>
        </g>
    </g>
</svg>
