<?xml version="1.0" encoding="UTF-8"?>
<svg width="14px" height="11px" viewBox="0 0 14 11" version="1.1" xmlns="http://www.w3.org/2000/svg" xmlns:xlink="http://www.w3.org/1999/xlink">
    <!-- Generator: Sketch 53.2 (72643) - https://sketchapp.com -->
    <title>Shape</title>
    <desc>Created with Sketch.</desc>
    <g id="新编辑器---第一、二期" stroke="none" stroke-width="1" fill="none" fill-rule="evenodd" opacity="0.45">
        <g id="21-消息提示" transform="translate(-813.000000, -587.000000)" fill="#000000" fill-rule="nonzero">
            <g id="Group-4复制-2" transform="translate(813.000000, 563.000000)">
                <g id="Group-2">
                    <g id="image-fill" transform="translate(0.000000, 8.000000)">
                        <path d="M13.5,16 C13.7765625,16 14,16.2234375 14,16.5 L14,26.5 C14,26.7765625 13.7765625,27 13.5,27 L0.5,27 C0.2234375,27 0,26.7765625 0,26.5 L0,16.5 C0,16.2234375 0.2234375,16 0.5,16 L13.5,16 Z M10.2678967,18.2320769 C9.2924533,17.2559744 7.70399246,17.2559744 6.7295846,18.2320769 L4.02692307,20.9344926 C4.00931952,20.952108 4,20.9759407 4,21.0008095 C4,21.0256784 4.00931952,21.049511 4.02692307,21.0671265 L4.40902349,21.4494851 C4.44526608,21.4857522 4.50428972,21.4857522 4.54053231,21.4494851 L7.24319384,18.7470695 C7.57869666,18.4113399 8.02499823,18.2268959 8.49925838,18.2268959 C8.97351853,18.2268959 9.41982011,18.4113399 9.75428742,18.7470695 C10.0897902,19.082799 10.2741097,19.5294022 10.2741097,20.0029467 C10.2741097,20.4775274 10.0897902,20.9230944 9.75428742,21.2588239 L6.99985076,24.0140859 L6.55354918,24.4606891 C6.13624167,24.8782786 5.45798753,24.8782786 5.04068002,24.4606891 C4.83875703,24.2586296 4.72795826,23.9902532 4.72795826,23.7042614 C4.72795826,23.4182695 4.83875703,23.1498931 5.04068002,22.9478337 L7.77337113,20.214332 C7.84274979,20.1459426 7.93387401,20.1076031 8.03121125,20.1076031 L8.03224675,20.1076031 C8.12958399,20.1076031 8.21967271,20.1459426 8.28801587,20.214332 C8.35739454,20.2837575 8.39467263,20.3749433 8.39467263,20.4723464 C8.39467263,20.5687132 8.35635904,20.659899 8.28801587,20.7282883 L6.05443697,22.9613043 C6.03683343,22.9789198 6.0275139,23.0027524 6.0275139,23.0276213 C6.0275139,23.0524901 6.03683343,23.0763228 6.05443697,23.0939382 L6.43653739,23.4762969 C6.47277998,23.512564 6.53180362,23.512564 6.56804621,23.4762969 L8.80058961,21.2422447 C9.00665461,21.0360404 9.11952438,20.762483 9.11952438,20.4713101 C9.11952438,20.1801373 9.00561911,19.9055437 8.80058961,19.7003756 C8.37499808,19.2744965 7.68328241,19.2755327 7.25769088,19.7003756 L6.99260224,19.9666796 L4.52603527,22.4338773 C4.18639045,22.7737517 4,23.2244997 4,23.7052976 C4,24.1850593 4.18742595,24.6358073 4.52603527,24.9746454 C4.87707062,25.3248818 5.33683373,25.5 5.79659685,25.5 C6.25635996,25.5 6.71612307,25.3248818 7.06612292,24.9746454 L10.2678967,21.7727803 C10.7390503,21.300272 10.9999969,20.6712972 10.9999969,20.0029467 C11.0010324,19.33356 10.7400858,18.7045852 10.2678967,18.2320769 Z" id="Shape"></path>
                    </g>
                </g>
            </g>
        </g>
    </g>
</svg>
