<?xml version="1.0" encoding="UTF-8"?>
<svg width="24px" height="24px" viewBox="0 0 24 24" version="1.1" xmlns="http://www.w3.org/2000/svg" xmlns:xlink="http://www.w3.org/1999/xlink">
    <!-- Generator: Sketch 62 (91390) - https://sketch.com -->
    <title>编组 12</title>
    <desc>Created with Sketch.</desc>
    <g id="新增嵌入第三方卡片" stroke="none" stroke-width="1" fill="none" fill-rule="evenodd">
        <g id="新增嵌入卡片/入口" transform="translate(-1305.000000, -979.000000)">
            <g id="编组-12" transform="translate(1305.001672, 979.000000)">
                <rect id="Rectangle备份" fill="#7280FF" x="0" y="0" width="24" height="24" rx="2.66666667"></rect>
                <g id="temp_riddle" transform="translate(6.666667, 6.666667)" fill="#FFFFFF" fill-rule="nonzero">
                    <path d="M10.6036418,10.0107143 L8.56187291,6.4702381 C9.65707915,5.89880952 10.4050539,4.75119048 10.4050539,3.42857143 C10.4050539,1.53452381 8.8722408,-7.10542736e-15 6.98030472,-7.10542736e-15 C6.9481977,-7.10542736e-15 6.91609067,-7.10542736e-15 6.88398365,0.00119047619 C6.87209216,-7.10542736e-15 6.86138982,-7.10542736e-15 6.84949833,-7.10542736e-15 L2.28316611,-7.10542736e-15 C2.04652546,-7.10542736e-15 1.85507246,0.191666667 1.85507246,0.428571429 L1.85507246,1.52380952 L0.428093645,1.52380952 C0.191452991,1.52380952 0,1.71547619 0,1.95238095 L0,10.2380952 C0,10.475 0.191452991,10.6666667 0.428093645,10.6666667 L10.2266815,10.6666667 C10.397919,10.6666667 10.5441843,10.5666667 10.613155,10.4214286 C10.677369,10.2964286 10.6797473,10.1416667 10.6036418,10.0107143 Z M6.61166852,2.38095238 C7.32040134,2.38095238 7.89594946,2.95714286 7.89594946,3.66666667 C7.89594946,4.37619048 7.32040134,4.95238095 6.61166852,4.95238095 L4.99442586,4.95238095 C4.75778521,4.95238095 4.56633222,5.14404762 4.56633222,5.38095238 C4.56633222,5.46071429 4.5877369,5.53452381 4.62578967,5.59761905 C4.62935712,5.60595238 4.63411371,5.61309524 4.63768116,5.6202381 L6.17406169,8.28571429 L2.71125975,8.28571429 L2.71125975,2.38095238 L5.93504274,2.38095238 C6.02303976,2.38333333 6.48442958,2.38095238 6.61166852,2.38095238 Z M2.28316611,9.14285714 L6.89706429,9.14285714 C6.90538833,9.14285714 6.91490152,9.14285714 6.92322557,9.14166667 C6.99338536,9.14047619 7.0647343,9.12142857 7.1301375,9.08452381 C7.33467113,8.96666667 7.40483092,8.70357143 7.28710517,8.49880952 L5.7352657,5.80952381 L6.61166852,5.80952381 C7.79368265,5.80952381 8.75213675,4.85 8.75213675,3.66666667 C8.75213675,2.48333333 7.79368265,1.52380952 6.61166852,1.52380952 C6.56767001,1.52380952 6.5236715,1.525 6.47967298,1.52738095 C6.4606466,1.525 6.44162022,1.52380952 6.42140468,1.52380952 L2.71125975,1.52380952 L2.71125975,0.857142857 L6.84949833,0.857142857 C6.85663322,0.857142857 6.86495726,0.857142857 6.87209216,0.855952381 C6.91252323,0.855952381 6.9481977,0.857142857 6.98030472,0.857142857 C8.39895949,0.857142857 9.54886659,2.00833333 9.54886659,3.42857143 C9.54886659,4.48690476 8.90315868,5.425 7.94113712,5.81428571 C7.87335563,5.84047619 7.81627648,5.86547619 7.77108881,5.89047619 C7.76157562,5.8952381 7.75206243,5.9 7.74254924,5.90595238 C7.53801561,6.02380952 7.46785582,6.28690476 7.58558157,6.49166667 L9.49892233,9.80952381 L0.856187291,9.80952381 L0.856187291,2.38095238 L1.85507246,2.38095238 L1.85507246,8.71428571 C1.85507246,8.95119048 2.04652546,9.14285714 2.28316611,9.14285714 Z" id="Shape"></path>
                </g>
            </g>
        </g>
    </g>
</svg>
