<?xml version="1.0" encoding="UTF-8"?>
<svg width="20px" height="20px" viewBox="0 0 20 20" version="1.1" xmlns="http://www.w3.org/2000/svg" xmlns:xlink="http://www.w3.org/1999/xlink">
    <g id="doc-type-table" stroke="none" stroke-width="1" fill="none" fill-rule="evenodd">
        <path d="M5.5,1.5 L14.5,1.5 C15.8807119,1.5 17,2.61928813 17,4 L17,16 C17,17.3807119 15.8807119,18.5 14.5,18.5 L5.5,18.5 C4.11928813,18.5 3,17.3807119 3,16 L3,4 C3,2.61928813 4.11928813,1.5 5.5,1.5 Z" id="路径" fill="#FFFFFF" fill-rule="nonzero"></path>
        <path d="M14.5,0.5 L5.5,0.5 C3.56700338,0.5 2,2.06700338 2,4 L2,16 C2,17.9329966 3.56700338,19.5 5.5,19.5 L14.5,19.5 C16.4329966,19.5 18,17.9329966 18,16 L18,4 C18,2.06700338 16.4329966,0.5 14.5,0.5 Z M5.5,1.5 L14.5,1.5 C15.8807119,1.5 17,2.61928813 17,4 L17,16 C17,17.3807119 15.8807119,18.5 14.5,18.5 L5.5,18.5 C4.11928813,18.5 3,17.3807119 3,16 L3,4 C3,2.61928813 4.11928813,1.5 5.5,1.5 Z" id="矩形" fill="#303030" fill-rule="nonzero"></path>
        <path d="M15,3.9 C15.2761424,3.9 15.5,4.12385763 15.5,4.4 C15.5,4.64545989 15.3231248,4.84960837 15.0898756,4.89194433 L15,4.9 L9,4.9 C8.72385763,4.9 8.5,4.67614237 8.5,4.4 C8.5,4.15454011 8.67687516,3.95039163 8.91012437,3.90805567 L9,3.9 L15,3.9 Z M6.8,3.9 C7.07614237,3.9 7.3,4.12385763 7.3,4.4 C7.3,4.64545989 7.12312484,4.84960837 6.88987563,4.89194433 L6.8,4.9 L5.2,4.9 C4.92385763,4.9 4.7,4.67614237 4.7,4.4 C4.7,4.15454011 4.87687516,3.95039163 5.11012437,3.90805567 L5.2,3.9 L6.8,3.9 Z" id="形状结合" fill="#BEC0BF" fill-rule="nonzero"></path>
        <path d="M7.25,7.05000001 L7.25,12.95 C7.25,13.3918278 6.89182779,13.75 6.44999999,13.75 L5.55000001,13.75 C5.10817221,13.75 4.75,13.3918278 4.75,12.95 L4.75,7.05000001 C4.75,6.60817221 5.10817221,6.25 5.55000001,6.25 L6.44999999,6.25 C6.89182779,6.25 7.25,6.60817221 7.25,7.05000001 Z" id="矩形" fill="#29BDDB"></path>
        <path d="M11.25,7.05000001 L11.25,15.45 C11.25,15.8918278 10.8918278,16.25 10.45,16.25 L9.55000001,16.25 C9.10817221,16.25 8.75,15.8918278 8.75,15.45 L8.75,7.05000001 C8.75,6.60817221 9.10817221,6.25 9.55000001,6.25 L10.45,6.25 C10.8918278,6.25 11.25,6.60817221 11.25,7.05000001 Z" id="矩形" fill="#29BDDB"></path>
        <path d="M15.25,7.05000001 L15.25,10.45 C15.25,10.8918278 14.8918278,11.25 14.45,11.25 L13.55,11.25 C13.1081722,11.25 12.75,10.8918278 12.75,10.45 L12.75,7.05000001 C12.75,6.60817221 13.1081722,6.25 13.55,6.25 L14.45,6.25 C14.8918278,6.25 15.25,6.60817221 15.25,7.05000001 Z" id="矩形" fill="#29BDDB"></path>
    </g>
</svg>
