<?xml version="1.0" encoding="UTF-8"?>
<svg width="20px" height="20px" viewBox="0 0 20 20" version="1.1" xmlns="http://www.w3.org/2000/svg" xmlns:xlink="http://www.w3.org/1999/xlink">
    <g id="doc-type-board-dark" stroke="none" stroke-width="1" fill="none" fill-rule="evenodd">
        <g id="编组" transform="translate(2.000000, 0.500000)" fill-rule="nonzero">
            <path d="M3.5,1 L12.5,1 C13.8807119,1 15,2.11928813 15,3.5 L15,15.5 C15,16.8807119 13.8807119,18 12.5,18 L3.5,18 C2.11928813,18 1,16.8807119 1,15.5 L1,3.5 C1,2.11928813 2.11928813,1 3.5,1 Z" id="路径" fill="#141414"></path>
            <path d="M12.5,0 L3.5,0 C1.56700338,0 0,1.56700338 0,3.5 L0,15.5 C0,17.4329966 1.56700338,19 3.5,19 L12.5,19 C14.4329966,19 16,17.4329966 16,15.5 L16,3.5 C16,1.56700338 14.4329966,0 12.5,0 Z M3.5,1 L12.5,1 C13.8807119,1 15,2.11928813 15,3.5 L15,15.5 C15,16.8807119 13.8807119,18 12.5,18 L3.5,18 C2.11928813,18 1,16.8807119 1,15.5 L1,3.5 C1,2.11928813 2.11928813,1 3.5,1 Z" id="矩形" fill="#C2C2C2"></path>
            <path d="M10,4 L5,4 C3.8954305,4 3,4.8954305 3,6 L3,10 C3,11.1045695 3.8954305,12 5,12 L10,12 C11.1045695,12 12,11.1045695 12,10 L12,6 C12,4.8954305 11.1045695,4 10,4 Z M5,5 L10,5 C10.5522847,5 11,5.44771525 11,6 L11,10 C11,10.5522847 10.5522847,11 10,11 L5,11 C4.44771525,11 4,10.5522847 4,10 L4,6 C4,5.44771525 4.44771525,5 5,5 Z" id="矩形" fill="#707270"></path>
            <path d="M10,8.25 C7.92893219,8.25 6.25,9.92893219 6.25,12 C6.25,14.0710678 7.92893219,15.75 10,15.75 C12.0710678,15.75 13.75,14.0710678 13.75,12 C13.75,9.92893219 12.0710678,8.25 10,8.25 Z" id="椭圆形" fill="#764BC6"></path>
        </g>
    </g>
</svg>
