<?xml version="1.0" encoding="UTF-8"?>
<svg width="20px" height="20px" viewBox="0 0 20 20" version="1.1" xmlns="http://www.w3.org/2000/svg" xmlns:xlink="http://www.w3.org/1999/xlink">
    <g id="doc-type-sheet-dark" stroke="none" stroke-width="1" fill="none" fill-rule="evenodd">
        <g id="编组-3" transform="translate(2.000000, 0.500000)">
            <path d="M3.5,1 L12.5,1 C13.8807119,1 15,2.11928813 15,3.5 L15,15.5 C15,16.8807119 13.8807119,18 12.5,18 L3.5,18 C2.11928813,18 1,16.8807119 1,15.5 L1,3.5 C1,2.11928813 2.11928813,1 3.5,1 Z" id="路径" fill="#141414" fill-rule="nonzero"></path>
            <path d="M12.5,0 L3.5,0 C1.56700338,0 0,1.56700338 0,3.5 L0,15.5 C0,17.4329966 1.56700338,19 3.5,19 L12.5,19 C14.4329966,19 16,17.4329966 16,15.5 L16,3.5 C16,1.56700338 14.4329966,0 12.5,0 Z M3.5,1 L12.5,1 C13.8807119,1 15,2.11928813 15,3.5 L15,15.5 C15,16.8807119 13.8807119,18 12.5,18 L3.5,18 C2.11928813,18 1,16.8807119 1,15.5 L1,3.5 C1,2.11928813 2.11928813,1 3.5,1 Z" id="矩形" fill="#C2C2C2" fill-rule="nonzero"></path>
            <g id="编组-2" transform="translate(2.500000, 4.000000)">
                <g id="编组" fill="#707270">
                    <path d="M5.10000002,4.5 L10.4,4.5 C10.7313708,4.5 11,4.76862916 11,5.10000002 L11,5.89999998 C11,6.23137084 10.7313708,6.5 10.4,6.5 L5.10000002,6.5 C4.76862916,6.5 4.5,6.23137084 4.5,5.89999998 L4.5,5.10000002 C4.5,4.76862916 4.76862916,4.5 5.10000002,4.5 Z" id="矩形"></path>
                    <path d="M0.600000024,4.5 L2.39999998,4.5 C2.73137084,4.5 3,4.76862916 3,5.10000002 L3,5.89999998 C3,6.23137084 2.73137084,6.5 2.39999998,6.5 L0.600000024,6.5 C0.268629161,6.5 0,6.23137084 0,5.89999998 L0,5.10000002 C0,4.76862916 0.268629161,4.5 0.600000024,4.5 Z" id="矩形"></path>
                    <g id="编组-5">
                        <path d="M5.10000002,0 L10.4,0 C10.7313708,0 11,0.268629161 11,0.600000024 L11,1.39999998 C11,1.73137084 10.7313708,2 10.4,2 L5.10000002,2 C4.76862916,2 4.5,1.73137084 4.5,1.39999998 L4.5,0.600000024 C4.5,0.268629161 4.76862916,0 5.10000002,0 Z" id="矩形"></path>
                        <path d="M0.600000024,0 L2.39999998,0 C2.73137084,0 3,0.268629161 3,0.600000024 L3,1.39999998 C3,1.73137084 2.73137084,2 2.39999998,2 L0.600000024,2 C0.268629161,2 0,1.73137084 0,1.39999998 L0,0.600000024 C0,0.268629161 0.268629161,0 0.600000024,0 Z" id="矩形"></path>
                    </g>
                </g>
                <g id="编组-4" transform="translate(0.000000, 9.000000)" fill="#159E64">
                    <path d="M5.10000002,0 L10.4,0 C10.7313708,0 11,0.268629161 11,0.600000024 L11,1.39999998 C11,1.73137084 10.7313708,2 10.4,2 L5.10000002,2 C4.76862916,2 4.5,1.73137084 4.5,1.39999998 L4.5,0.600000024 C4.5,0.268629161 4.76862916,0 5.10000002,0 Z" id="矩形"></path>
                    <path d="M0.600000024,0 L2.39999998,0 C2.73137084,0 3,0.268629161 3,0.600000024 L3,1.39999998 C3,1.73137084 2.73137084,2 2.39999998,2 L0.600000024,2 C0.268629161,2 0,1.73137084 0,1.39999998 L0,0.600000024 C0,0.268629161 0.268629161,0 0.600000024,0 Z" id="矩形"></path>
                </g>
            </g>
        </g>
    </g>
</svg>
