<?xml version="1.0" encoding="UTF-8"?>
<svg width="20px" height="20px" viewBox="0 0 20 20" version="1.1" xmlns="http://www.w3.org/2000/svg" xmlns:xlink="http://www.w3.org/1999/xlink">
    <g id="doc-type-default-dark" stroke="none" stroke-width="1" fill="none" fill-rule="evenodd">
        <path d="M14.5,0.5 L5.5,0.5 C3.56700338,0.5 2,2.06700338 2,4 L2,16 C2,17.9329966 3.56700338,19.5 5.5,19.5 L14.5,19.5 C16.4329966,19.5 18,17.9329966 18,16 L18,4 C18,2.06700338 16.4329966,0.5 14.5,0.5 Z M5.5,1.5 L14.5,1.5 C15.8807119,1.5 17,2.61928813 17,4 L17,16 C17,17.3807119 15.8807119,18.5 14.5,18.5 L5.5,18.5 C4.11928813,18.5 3,17.3807119 3,16 L3,4 C3,2.61928813 4.11928813,1.5 5.5,1.5 Z" id="矩形" fill="#C2C2C2" fill-rule="nonzero"></path>
        <path d="M5.5,1.5 L14.5,1.5 C15.8807119,1.5 17,2.61928813 17,4 L17,16 C17,17.3807119 15.8807119,18.5 14.5,18.5 L5.5,18.5 C4.11928813,18.5 3,17.3807119 3,16 L3,4 C3,2.61928813 4.11928813,1.5 5.5,1.5 Z" id="路径" fill="#141414" fill-rule="nonzero"></path>
        <path d="M6.5,4.5 L13.5,4.5 C14.0522847,4.5 14.5,4.94771525 14.5,5.5 L14.5,7 C14.5,7.55228475 14.0522847,8 13.5,8 L6.5,8 C5.94771525,8 5.5,7.55228475 5.5,7 L5.5,5.5 C5.5,4.94771525 5.94771525,4.5 6.5,4.5 Z" id="矩形" fill="#2970D3"></path>
        <path d="M14,10.75 C14.2761424,10.75 14.5,10.9738576 14.5,11.25 C14.5,11.4954599 14.3231248,11.6996084 14.0898756,11.7419443 L14,11.75 L6,11.75 C5.72385763,11.75 5.5,11.5261424 5.5,11.25 C5.5,11.0045401 5.67687516,10.8003916 5.91012437,10.7580557 L6,10.75 L14,10.75 Z M11,13.75 C11.2761424,13.75 11.5,13.9738576 11.5,14.25 C11.5,14.4954599 11.3231248,14.6996084 11.0898756,14.7419443 L11,14.75 L6,14.75 C5.72385763,14.75 5.5,14.5261424 5.5,14.25 C5.5,14.0045401 5.67687516,13.8003916 5.91012437,13.7580557 L6,13.75 L11,13.75 Z" id="形状结合" fill="#707270" fill-rule="nonzero"></path>
    </g>
</svg>
