<?xml version="1.0" encoding="UTF-8"?>
<svg width="20px" height="20px" viewBox="0 0 20 20" version="1.1" xmlns="http://www.w3.org/2000/svg" xmlns:xlink="http://www.w3.org/1999/xlink">
    <g id="doc-type-sheet" stroke="none" stroke-width="1" fill="none" fill-rule="evenodd">
        <path d="M5.5,1.5 L14.5,1.5 C15.8807119,1.5 17,2.61928813 17,4 L17,16 C17,17.3807119 15.8807119,18.5 14.5,18.5 L5.5,18.5 C4.11928813,18.5 3,17.3807119 3,16 L3,4 C3,2.61928813 4.11928813,1.5 5.5,1.5 Z" id="路径" fill="#FFFFFF" fill-rule="nonzero"></path>
        <path d="M14.5,0.5 L5.5,0.5 C3.56700338,0.5 2,2.06700338 2,4 L2,16 C2,17.9329966 3.56700338,19.5 5.5,19.5 L14.5,19.5 C16.4329966,19.5 18,17.9329966 18,16 L18,4 C18,2.06700338 16.4329966,0.5 14.5,0.5 Z M5.5,1.5 L14.5,1.5 C15.8807119,1.5 17,2.61928813 17,4 L17,16 C17,17.3807119 15.8807119,18.5 14.5,18.5 L5.5,18.5 C4.11928813,18.5 3,17.3807119 3,16 L3,4 C3,2.61928813 4.11928813,1.5 5.5,1.5 Z" id="矩形" fill="#303030" fill-rule="nonzero"></path>
        <path d="M9.60000002,9 L14.9,9 C15.2313708,9 15.5,9.26862916 15.5,9.60000002 L15.5,10.4 C15.5,10.7313708 15.2313708,11 14.9,11 L9.60000002,11 C9.26862916,11 9,10.7313708 9,10.4 L9,9.60000002 C9,9.26862916 9.26862916,9 9.60000002,9 Z" id="矩形" fill="#BEC0BF"></path>
        <path d="M5.10000002,9 L6.89999998,9 C7.23137084,9 7.5,9.26862916 7.5,9.60000002 L7.5,10.4 C7.5,10.7313708 7.23137084,11 6.89999998,11 L5.10000002,11 C4.76862916,11 4.5,10.7313708 4.5,10.4 L4.5,9.60000002 C4.5,9.26862916 4.76862916,9 5.10000002,9 Z" id="矩形" fill="#BEC0BF"></path>
        <path d="M9.60000002,4.5 L14.9,4.5 C15.2313708,4.5 15.5,4.76862916 15.5,5.10000002 L15.5,5.89999998 C15.5,6.23137084 15.2313708,6.5 14.9,6.5 L9.60000002,6.5 C9.26862916,6.5 9,6.23137084 9,5.89999998 L9,5.10000002 C9,4.76862916 9.26862916,4.5 9.60000002,4.5 Z" id="矩形" fill="#BEC0BF"></path>
        <path d="M5.10000002,4.5 L6.89999998,4.5 C7.23137084,4.5 7.5,4.76862916 7.5,5.10000002 L7.5,5.89999998 C7.5,6.23137084 7.23137084,6.5 6.89999998,6.5 L5.10000002,6.5 C4.76862916,6.5 4.5,6.23137084 4.5,5.89999998 L4.5,5.10000002 C4.5,4.76862916 4.76862916,4.5 5.10000002,4.5 Z" id="矩形" fill="#BEC0BF"></path>
        <path d="M9.60000002,13.5 L14.9,13.5 C15.2313708,13.5 15.5,13.7686292 15.5,14.1 L15.5,14.9 C15.5,15.2313708 15.2313708,15.5 14.9,15.5 L9.60000002,15.5 C9.26862916,15.5 9,15.2313708 9,14.9 L9,14.1 C9,13.7686292 9.26862916,13.5 9.60000002,13.5 Z" id="矩形" fill="#00B96B"></path>
        <path d="M5.10000002,13.5 L6.89999998,13.5 C7.23137084,13.5 7.5,13.7686292 7.5,14.1 L7.5,14.9 C7.5,15.2313708 7.23137084,15.5 6.89999998,15.5 L5.10000002,15.5 C4.76862916,15.5 4.5,15.2313708 4.5,14.9 L4.5,14.1 C4.5,13.7686292 4.76862916,13.5 5.10000002,13.5 Z" id="矩形" fill="#00B96B"></path>
    </g>
</svg>
