<?xml version="1.0" encoding="UTF-8"?>
<svg width="20px" height="20px" viewBox="0 0 20 20" version="1.1" xmlns="http://www.w3.org/2000/svg" xmlns:xlink="http://www.w3.org/1999/xlink">
    <g id="doc-type-table-dark" stroke="none" stroke-width="1" fill="none" fill-rule="evenodd">
        <g id="编组" transform="translate(2.000000, 0.500000)">
            <path d="M3.5,1 L12.5,1 C13.8807119,1 15,2.11928813 15,3.5 L15,15.5 C15,16.8807119 13.8807119,18 12.5,18 L3.5,18 C2.11928813,18 1,16.8807119 1,15.5 L1,3.5 C1,2.11928813 2.11928813,1 3.5,1 Z" id="路径" fill="#141414" fill-rule="nonzero"></path>
            <path d="M12.5,0 L3.5,0 C1.56700338,0 0,1.56700338 0,3.5 L0,15.5 C0,17.4329966 1.56700338,19 3.5,19 L12.5,19 C14.4329966,19 16,17.4329966 16,15.5 L16,3.5 C16,1.56700338 14.4329966,0 12.5,0 Z M3.5,1 L12.5,1 C13.8807119,1 15,2.11928813 15,3.5 L15,15.5 C15,16.8807119 13.8807119,18 12.5,18 L3.5,18 C2.11928813,18 1,16.8807119 1,15.5 L1,3.5 C1,2.11928813 2.11928813,1 3.5,1 Z" id="矩形" fill="#C2C2C2" fill-rule="nonzero"></path>
            <path d="M13,3.4 C13.2761424,3.4 13.5,3.62385763 13.5,3.9 C13.5,4.14545989 13.3231248,4.34960837 13.0898756,4.39194433 L13,4.4 L7,4.4 C6.72385763,4.4 6.5,4.17614237 6.5,3.9 C6.5,3.65454011 6.67687516,3.45039163 6.91012437,3.40805567 L7,3.4 L13,3.4 Z M4.8,3.4 C5.07614237,3.4 5.3,3.62385763 5.3,3.9 C5.3,4.14545989 5.12312484,4.34960837 4.88987563,4.39194433 L4.8,4.4 L3.2,4.4 C2.92385763,4.4 2.7,4.17614237 2.7,3.9 C2.7,3.65454011 2.87687516,3.45039163 3.11012437,3.40805567 L3.2,3.4 L4.8,3.4 Z" id="形状结合" fill="#707270" fill-rule="nonzero"></path>
            <path d="M5.25,6.55000001 L5.25,12.45 C5.25,12.8918278 4.89182779,13.25 4.44999999,13.25 L3.55000001,13.25 C3.10817221,13.25 2.75,12.8918278 2.75,12.45 L2.75,6.55000001 C2.75,6.10817221 3.10817221,5.75 3.55000001,5.75 L4.44999999,5.75 C4.89182779,5.75 5.25,6.10817221 5.25,6.55000001 Z" id="矩形" fill="#0896B3"></path>
            <path d="M9.25,6.55000001 L9.25,14.95 C9.25,15.3918278 8.89182779,15.75 8.44999999,15.75 L7.55000001,15.75 C7.10817221,15.75 6.75,15.3918278 6.75,14.95 L6.75,6.55000001 C6.75,6.10817221 7.10817221,5.75 7.55000001,5.75 L8.44999999,5.75 C8.89182779,5.75 9.25,6.10817221 9.25,6.55000001 Z" id="矩形" fill="#0896B3"></path>
            <path d="M13.25,6.55000001 L13.25,9.94999999 C13.25,10.3918278 12.8918278,10.75 12.45,10.75 L11.55,10.75 C11.1081722,10.75 10.75,10.3918278 10.75,9.94999999 L10.75,6.55000001 C10.75,6.10817221 11.1081722,5.75 11.55,5.75 L12.45,5.75 C12.8918278,5.75 13.25,6.10817221 13.25,6.55000001 Z" id="矩形" fill="#0896B3"></path>
        </g>
    </g>
</svg>
