<?xml version="1.0" encoding="UTF-8"?>
<svg width="20px" height="20px" viewBox="0 0 20 20" version="1.1" xmlns="http://www.w3.org/2000/svg" xmlns:xlink="http://www.w3.org/1999/xlink">
    <g id="doc-type-board" stroke="none" stroke-width="1" fill="none" fill-rule="evenodd">
        <path d="M5.5,1.5 L14.5,1.5 C15.8807119,1.5 17,2.61928813 17,4 L17,16 C17,17.3807119 15.8807119,18.5 14.5,18.5 L5.5,18.5 C4.11928813,18.5 3,17.3807119 3,16 L3,4 C3,2.61928813 4.11928813,1.5 5.5,1.5 Z" id="路径" fill="#FFFFFF" fill-rule="nonzero"></path>
        <path d="M14.5,0.5 L5.5,0.5 C3.56700338,0.5 2,2.06700338 2,4 L2,16 C2,17.9329966 3.56700338,19.5 5.5,19.5 L14.5,19.5 C16.4329966,19.5 18,17.9329966 18,16 L18,4 C18,2.06700338 16.4329966,0.5 14.5,0.5 Z M5.5,1.5 L14.5,1.5 C15.8807119,1.5 17,2.61928813 17,4 L17,16 C17,17.3807119 15.8807119,18.5 14.5,18.5 L5.5,18.5 C4.11928813,18.5 3,17.3807119 3,16 L3,4 C3,2.61928813 4.11928813,1.5 5.5,1.5 Z" id="矩形" fill="#303030" fill-rule="nonzero"></path>
        <path d="M11.6,4.5 L7.1,4.5 C5.9954305,4.5 5.1,5.3954305 5.1,6.5 L5.1,10.5 C5.1,11.6045695 5.9954305,12.5 7.1,12.5 L11.6,12.5 C12.7045695,12.5 13.6,11.6045695 13.6,10.5 L13.6,6.5 C13.6,5.3954305 12.7045695,4.5 11.6,4.5 Z M7.1,5.5 L11.6,5.5 C12.1522847,5.5 12.6,5.94771525 12.6,6.5 L12.6,10.5 C12.6,11.0522847 12.1522847,11.5 11.6,11.5 L7.1,11.5 C6.54771525,11.5 6.1,11.0522847 6.1,10.5 L6.1,6.5 C6.1,5.94771525 6.54771525,5.5 7.1,5.5 Z" id="矩形" fill="#BEC0BF" fill-rule="nonzero"></path>
        <path d="M12,8.75 C9.92893219,8.75 8.25,10.4289322 8.25,12.5 C8.25,14.5710678 9.92893219,16.25 12,16.25 C14.0710678,16.25 15.75,14.5710678 15.75,12.5 C15.75,10.4289322 14.0710678,8.75 12,8.75 Z" id="椭圆形" fill="#8F5DEC" fill-rule="nonzero"></path>
    </g>
</svg>
