<svg width="1em" height="1em" viewBox="0 0 36 36" xmlns="http://www.w3.org/2000/svg" class="larkui-icon larkui-icon-editor-main-mind-map"><defs><rect id="2267757501a" x="0" y="0" width="36" height="36" rx="6"></rect></defs><g fill="none" fill-rule="evenodd"><rect stroke="#E7E9E8" fill="#FFF" x="0.5" y="0.5" width="35" height="35" rx="6"></rect><path d="M18.36 18.024c.637-2.659 1.432-4.47 2.17-5.648.74-1.177 1.938-2.852 3.329-2.852h2.913" stroke="#9A6EED" stroke-linecap="round"></path><path d="M29.568 11.024a1.5 1.5 0 1 0 0-3 1.5 1.5 0 0 0 0 3Z" fill="#7E45E8"></path><path d="M17.23 17.952c-.416-2.843-1.915-4.694-2.98-6.388-1.064-1.694-2.719-2.04-4.258-2.04H6.568" stroke="#9A6EED" stroke-linecap="round"></path><path d="M16.374 18c1.176.032 2.303.048 3.382.048 1.078 0 4.284-.016 9.618-.048" stroke="#8A8F8D" stroke-linecap="round"></path><path d="M29.568 19.452a1.5 1.5 0 1 0 0-3 1.5 1.5 0 0 0 0 3Z" fill="#8A8F8D"></path><path d="M6.23 18c.996.032 1.95.048 2.863.048.912 0 3.625-.016 8.138-.048M17.846 20.94c1.201 2.084 1.722 3.033 3.627 4.325 1.27.862 3.112 1.42 5.527 1.674h3.689" stroke="#8A8F8D" stroke-linecap="round"></path><path d="M29.568 28.44a1.5 1.5 0 1 0 0-3 1.5 1.5 0 0 0 0 3Z" fill="#8A8F8D"></path><path d="M17.23 21.323c-1.689 3.473-2.814 4.558-3.99 5.008-.785.3-2.124.524-4.018.672H6.064" stroke="#8A8F8D" stroke-linecap="round"></path><path d="M6.568 11.024a1.5 1.5 0 1 0 0-3 1.5 1.5 0 0 0 0 3Z" fill="#7E45E8"></path><path d="M6.568 19.452a1.5 1.5 0 1 0 0-3 1.5 1.5 0 0 0 0 3ZM6.568 28.44a1.5 1.5 0 1 0 0-3 1.5 1.5 0 0 0 0 3Z" fill="#8A8F8D"></path><path d="M17.667 14.238c1.373 0 2.795.037 4.268.112.532.027 1.006.26 1.348.62.342.36.55.845.55 1.378v3.226c0 .542-.215 1.035-.566 1.395-.35.361-.837.59-1.379.605-3.146.09-5.304.124-6.474.101-.699-.013-1.4-.054-2.106-.122a1.995 1.995 0 0 1-1.289-.646 1.995 1.995 0 0 1-.519-1.345v-3.214c0-.533.209-1.019.55-1.378.342-.36.817-.593 1.349-.62a84.326 84.326 0 0 1 4.268-.112Z" stroke="currentColor" fill="#EFF0F0"></path><rect stroke="#E7E9E8" x="0.5" y="0.5" width="35" height="35" rx="6"></rect></g></svg>