<svg width="1em" height="1em" viewBox="0 0 36 36" xmlns="http://www.w3.org/2000/svg" class="larkui-icon larkui-icon-editor-main-data-table-kanban-view"><defs><rect id="1129529509a" x="0" y="0" width="36" height="36" rx="6"></rect></defs><g fill="none" fill-rule="evenodd"><rect stroke="#E7E9E8" fill="#FFF" x="0.5" y="0.5" width="35" height="35" rx="6"></rect><path d="M5.75 4.702h24.5a.75.75 0 1 1 0 1.5H5.75a.75.75 0 1 1 0-1.5ZM5.5 8.418h14a.5.5 0 1 1 0 1h-14a.5.5 0 0 1 0-1Z" fill="#D7DBD9"></path><path fill="#E7E9E8" d="M6 19h10v11H6z"></path><path d="M15 18.5c.414 0 .79.168 1.06.44.272.27.44.646.44 1.06v15.5h-11V20c0-.414.168-.79.44-1.06.27-.272.646-.44 1.06-.44Z" stroke="currentColor"></path><rect stroke="#8A8F8D" x="20.5" y="18.5" width="8" height="11" rx="2"></rect><path d="M35.5 18.5v11H34c-.414 0-.79-.168-1.06-.44A1.495 1.495 0 0 1 32.5 28v-8c0-.414.168-.79.44-1.06.27-.272.646-.44 1.06-.44h1.5ZM27 33.5c.414 0 .79.168 1.06.44.272.27.44.646.44 1.06v.5h-8V35c0-.414.168-.79.44-1.06.27-.272.646-.44 1.06-.44Z" stroke="#8A8F8D"></path><rect fill="#F5DA80" x="5.566" y="13" width="8" height="2.5" rx="1"></rect><rect fill="#F1A2AB" x="20.566" y="13" width="7" height="2.5" rx="1"></rect><path d="M33.566 13H36v2.5h-2.434a1 1 0 0 1-1-1V14a1 1 0 0 1 1-1Z" fill="#81B3F8"></path><rect stroke="#E7E9E8" x="0.5" y="0.5" width="35" height="35" rx="6"></rect></g></svg>
