<?xml version="1.0" encoding="UTF-8"?>
<svg width="17px" height="16px" viewBox="0 0 17 16" version="1.1" xmlns="http://www.w3.org/2000/svg" xmlns:xlink="http://www.w3.org/1999/xlink">
    <!-- Generator: Sketch 52.4 (67378) - http://www.bohemiancoding.com/sketch -->
    <title>Card</title>
    <desc>Created with Sketch.</desc>
    <g id="Editor-Interface" stroke="none" stroke-width="1" fill="none" fill-rule="evenodd">
        <g id="卡片-展开" transform="translate(-179.000000, -68.000000)">
            <g id="toolbar" transform="translate(171.000000, 56.000000)">
                <g id="card" transform="translate(0.000000, 4.000000)">
                    <g id="Card" transform="translate(7.000000, 7.000000)">
                        <g id="Group" fill="#D8D8D8" opacity="0">
                            <rect id="透明底图" x="0" y="0" width="18" height="18"></rect>
                        </g>
                        <path d="M14.175,5.34231059 L14.175,2.53125 C14.175,2.46911797 14.124632,2.41875 14.0625,2.41875 L1.6875,2.41875 C1.62536797,2.41875 1.575,2.46911797 1.575,2.53125 L1.575,13.6933594 C1.575,13.7554914 1.62536797,13.8058594 1.6875,13.8058594 L5.95107425,13.8058594 C5.80985718,13.2512653 5.7375,12.6772825 5.7375,12.09375 C5.7375,8.27262989 8.83512989,5.175 12.65625,5.175 C13.1720976,5.175 13.6805941,5.23154039 14.175,5.34231059 Z" id="Combined-Shape" stroke="#25B864" stroke-width="0.9" fill-opacity="0.3" fill="#25B864"></path>
                        <path d="M12.65625,7.3125 C15.2966099,7.3125 17.4375,9.45339007 17.4375,12.09375 C17.4375,14.7341099 15.2966099,16.875 12.65625,16.875 C10.0158901,16.875 7.875,14.7341099 7.875,12.09375 C7.875,9.45339007 10.0158901,7.3125 12.65625,7.3125 Z M12.09375,11.53125 L10.40625,11.53125 C10.328585,11.53125 10.265625,11.59421 10.265625,11.671875 L10.265625,12.515625 C10.265625,12.59329 10.328585,12.65625 10.40625,12.65625 L12.09375,12.65625 L12.09375,14.34375 C12.09375,14.421415 12.15671,14.484375 12.234375,14.484375 L13.078125,14.484375 C13.15579,14.484375 13.21875,14.421415 13.21875,14.34375 L13.21875,12.65625 L14.90625,12.65625 C14.983915,12.65625 15.046875,12.59329 15.046875,12.515625 L15.046875,11.671875 C15.046875,11.59421 14.983915,11.53125 14.90625,11.53125 L13.21875,11.53125 L13.21875,9.84375 C13.21875,9.76608496 13.15579,9.703125 13.078125,9.703125 L12.234375,9.703125 C12.15671,9.703125 12.09375,9.76608496 12.09375,9.84375 L12.09375,11.53125 Z" id="Combined-Shape" fill="#25B864" fill-rule="nonzero"></path>
                    </g>
                </g>
            </g>
        </g>
    </g>
</svg>
